<svg width="66" height="66" viewBox="0 0 66 66" fill="none" xmlns="http://www.w3.org/2000/svg">
<path id="wicked1" d="M32.0043 1.73904C32.1165 0.528802 33.8835 0.52881 33.9957 1.73904L36.4872 28.6094C36.5316 29.0888 36.9112 29.4684 37.3906 29.5128L64.261 32.0043C65.4712 32.1165 65.4712 33.8835 64.261 33.9957L37.3906 36.4872C36.9112 36.5316 36.5316 36.9112 36.4872 37.3906L33.9957 64.261C33.8835 65.4712 32.1165 65.4712 32.0043 64.261L29.5128 37.3906C29.4684 36.9112 29.0888 36.5316 28.6094 36.4872L1.73904 33.9957C0.528802 33.8835 0.52881 32.1165 1.73904 32.0043L28.6094 29.5128C29.0888 29.4684 29.4684 29.0888 29.5128 28.6094L32.0043 1.73904Z" fill="#228B2D"/>
</svg>
